<svg width="1251" height="617" viewBox="0 0 1251 617" fill="none" xmlns="http://www.w3.org/2000/svg">
<g clip-path="url(#clip0_2_104)">
<g opacity="0.7">
<path d="M176.907 139.242L44.6908 139.242" stroke="#13C296" stroke-width="4.38967" stroke-linecap="round" stroke-linejoin="round" stroke-dasharray="0.88 17.56"/>
<path d="M176.907 123.778L44.6908 123.778" stroke="#13C296" stroke-width="4.38967" stroke-linecap="round" stroke-linejoin="round" stroke-dasharray="0.88 17.56"/>
<path d="M176.907 108.314L44.6908 108.314" stroke="#13C296" stroke-width="4.38967" stroke-linecap="round" stroke-linejoin="round" stroke-dasharray="0.88 17.56"/>
<path d="M176.907 92.8505L44.6908 92.8505" stroke="#13C296" stroke-width="4.38967" stroke-linecap="round" stroke-linejoin="round" stroke-dasharray="0.88 17.56"/>
<path d="M176.907 77.3866L44.6907 77.3866" stroke="#13C296" stroke-width="4.38967" stroke-linecap="round" stroke-linejoin="round" stroke-dasharray="0.88 17.56"/>
</g>
<path fill-rule="evenodd" clip-rule="evenodd" d="M42.9124 440.268C42.9124 407.814 42.9124 381.505 42.9124 381.505C75.3663 381.505 101.675 407.814 101.675 440.268C101.675 440.268 101.675 440.268 42.9124 440.268Z" fill="#13C296"/>
<path fill-rule="evenodd" clip-rule="evenodd" d="M110.567 417.072C110.567 356.008 110.567 306.505 110.567 306.505C49.5026 306.505 0 356.008 0 417.072C0 417.072 0 417.072 110.567 417.072Z" stroke="#3056D3" stroke-width="1.3169"/>
<g opacity="0.7">
<path d="M494.072 373.387H428.351" stroke="#13C296" stroke-width="4.38967" stroke-linecap="round" stroke-linejoin="round" stroke-dasharray="0.88 17.56"/>
<path d="M494.072 357.923H428.351" stroke="#13C296" stroke-width="4.38967" stroke-linecap="round" stroke-linejoin="round" stroke-dasharray="0.88 17.56"/>
<path d="M494.072 342.459H428.351" stroke="#13C296" stroke-width="4.38967" stroke-linecap="round" stroke-linejoin="round" stroke-dasharray="0.88 17.56"/>
<path d="M494.072 326.995H428.351" stroke="#13C296" stroke-width="4.38967" stroke-linecap="round" stroke-linejoin="round" stroke-dasharray="0.88 17.56"/>
<path d="M494.072 311.531H428.351" stroke="#13C296" stroke-width="4.38967" stroke-linecap="round" stroke-linejoin="round" stroke-dasharray="0.88 17.56"/>
</g>
<g opacity="0.5">
<path d="M1228.71 435.302C1230.64 434.19 1233.1 434.85 1234.21 436.777C1235.33 438.703 1234.67 441.167 1232.74 442.28C1230.81 443.392 1228.35 442.731 1227.24 440.805C1226.13 438.879 1226.79 436.414 1228.71 435.302Z" fill="url(#paint0_linear_2_104)"/>
<path d="M1310.16 393.731L1309.49 392.575L1232.44 437.061L1233.11 438.216L1310.16 393.731Z" fill="url(#paint1_linear_2_104)"/>
<path d="M1211.19 382.52C1213.12 381.408 1215.58 382.068 1216.7 383.994C1217.81 385.92 1217.15 388.385 1215.22 389.497C1213.3 390.609 1210.83 389.949 1209.72 388.023C1208.61 386.096 1209.27 383.632 1211.19 382.52Z" fill="url(#paint2_linear_2_104)"/>
<path d="M1292.63 340.927L1291.96 339.771L1214.89 384.269L1215.55 385.425L1292.63 340.927Z" fill="url(#paint3_linear_2_104)"/>
<path d="M1018.84 403.256C1020.76 402.143 1023.23 402.804 1024.34 404.73C1025.45 406.656 1024.79 409.121 1022.87 410.233C1020.94 411.345 1018.48 410.685 1017.36 408.758C1016.23 406.845 1016.91 404.368 1018.84 403.256Z" fill="url(#paint4_linear_2_104)"/>
<path d="M1289.09 252.649L1288.42 251.493L1022.53 405.005L1023.2 406.161L1289.09 252.649Z" fill="url(#paint5_linear_2_104)"/>
<path d="M987.304 316.015C989.231 314.903 991.695 315.564 992.807 317.49C993.919 319.416 993.259 321.881 991.333 322.993C989.406 324.105 986.942 323.445 985.83 321.518C984.696 319.604 985.357 317.14 987.304 316.015Z" fill="url(#paint6_linear_2_104)"/>
<path d="M1399.79 83.3171L1399.12 82.1614L990.988 317.799L991.655 318.954L1399.79 83.3171Z" fill="url(#paint7_linear_2_104)"/>
<path d="M1124.3 414.309C1126.23 413.197 1128.69 413.857 1129.8 415.784C1130.92 417.71 1130.26 420.174 1128.33 421.287C1126.4 422.399 1123.94 421.738 1122.83 419.812C1121.69 417.898 1122.38 415.421 1124.3 414.309Z" fill="url(#paint8_linear_2_104)"/>
<path d="M1394.54 263.736L1393.88 262.58L1127.98 416.092L1128.65 417.248L1394.54 263.736Z" fill="url(#paint9_linear_2_104)"/>
<path d="M1063.6 259.695C1065.53 258.582 1067.99 259.243 1069.1 261.169C1070.22 263.095 1069.56 265.56 1067.63 266.672C1065.7 267.784 1063.24 267.124 1062.13 265.197C1061.01 263.271 1061.67 260.807 1063.6 259.695Z" fill="url(#paint10_linear_2_104)"/>
<path d="M1333.85 109.088L1333.18 107.932L1067.29 261.444L1067.96 262.6L1333.85 109.088Z" fill="url(#paint11_linear_2_104)"/>
<path d="M1205.21 259.067C1207.14 257.955 1209.6 258.615 1210.72 260.542C1211.83 262.468 1211.17 264.932 1209.24 266.044C1207.31 267.157 1204.85 266.496 1203.74 264.57C1202.63 262.644 1203.29 260.179 1205.21 259.067Z" fill="url(#paint12_linear_2_104)"/>
<path d="M1356.69 177.063L1356.02 175.908L1208.92 260.838L1209.58 261.994L1356.69 177.063Z" fill="url(#paint13_linear_2_104)" fill-opacity="0.5"/>
</g>
</g>
<defs>
<linearGradient id="paint0_linear_2_104" x1="1250.37" y1="427.467" x2="1310.99" y2="392.467" gradientUnits="userSpaceOnUse">
<stop stop-color="#A4FFFF"/>
<stop offset="1" stop-color="#A4FFFF" stop-opacity="0"/>
</linearGradient>
<linearGradient id="paint1_linear_2_104" x1="1250.37" y1="427.465" x2="1311.01" y2="392.456" gradientUnits="userSpaceOnUse">
<stop stop-color="#A4FFFF"/>
<stop offset="1" stop-color="#A4FFFF" stop-opacity="0"/>
</linearGradient>
<linearGradient id="paint2_linear_2_104" x1="1232.85" y1="374.68" x2="1293.49" y2="339.67" gradientUnits="userSpaceOnUse">
<stop stop-color="#A4FFFF"/>
<stop offset="1" stop-color="#A4FFFF" stop-opacity="0"/>
</linearGradient>
<linearGradient id="paint3_linear_2_104" x1="1232.85" y1="374.679" x2="1293.49" y2="339.67" gradientUnits="userSpaceOnUse">
<stop stop-color="#A4FFFF"/>
<stop offset="1" stop-color="#A4FFFF" stop-opacity="0"/>
</linearGradient>
<linearGradient id="paint4_linear_2_104" x1="1055.05" y1="387.009" x2="1163.04" y2="324.659" gradientUnits="userSpaceOnUse">
<stop stop-color="#A4FFFF"/>
<stop offset="1" stop-color="#A4FFFF" stop-opacity="0"/>
</linearGradient>
<linearGradient id="paint5_linear_2_104" x1="1082.07" y1="371.409" x2="1280.73" y2="256.715" gradientUnits="userSpaceOnUse">
<stop stop-color="#A4FFFF"/>
<stop offset="1" stop-color="#A4FFFF" stop-opacity="0"/>
</linearGradient>
<linearGradient id="paint6_linear_2_104" x1="1023.52" y1="299.777" x2="1131.51" y2="237.427" gradientUnits="userSpaceOnUse">
<stop stop-color="#A4FFFF"/>
<stop offset="1" stop-color="#A4FFFF" stop-opacity="0"/>
</linearGradient>
<linearGradient id="paint7_linear_2_104" x1="1082.21" y1="265.888" x2="1387.14" y2="89.8374" gradientUnits="userSpaceOnUse">
<stop stop-color="#A4FFFF"/>
<stop offset="1" stop-color="#A4FFFF" stop-opacity="0"/>
</linearGradient>
<linearGradient id="paint8_linear_2_104" x1="1160.52" y1="398.068" x2="1268.51" y2="335.718" gradientUnits="userSpaceOnUse">
<stop stop-color="#A4FFFF"/>
<stop offset="1" stop-color="#A4FFFF" stop-opacity="0"/>
</linearGradient>
<linearGradient id="paint9_linear_2_104" x1="1187.54" y1="382.467" x2="1386.2" y2="267.773" gradientUnits="userSpaceOnUse">
<stop stop-color="#A4FFFF"/>
<stop offset="1" stop-color="#A4FFFF" stop-opacity="0"/>
</linearGradient>
<linearGradient id="paint10_linear_2_104" x1="1099.82" y1="243.445" x2="1207.81" y2="181.095" gradientUnits="userSpaceOnUse">
<stop stop-color="#A4FFFF"/>
<stop offset="1" stop-color="#A4FFFF" stop-opacity="0"/>
</linearGradient>
<linearGradient id="paint11_linear_2_104" x1="1126.84" y1="227.844" x2="1325.5" y2="113.15" gradientUnits="userSpaceOnUse">
<stop stop-color="#A4FFFF"/>
<stop offset="1" stop-color="#A4FFFF" stop-opacity="0"/>
</linearGradient>
<linearGradient id="paint12_linear_2_104" x1="1241.43" y1="242.823" x2="1349.39" y2="180.492" gradientUnits="userSpaceOnUse">
<stop stop-color="#A4FFFF"/>
<stop offset="1" stop-color="#A4FFFF" stop-opacity="0"/>
</linearGradient>
<linearGradient id="paint13_linear_2_104" x1="1242.01" y1="242.488" x2="1351.92" y2="179.031" gradientUnits="userSpaceOnUse">
<stop stop-color="#A4FFFF" stop-opacity="0"/>
<stop offset="1" stop-color="#A4FFFF"/>
</linearGradient>
<clipPath id="clip0_2_104">
<rect width="1628.18" height="616.454" fill="white"/>
</clipPath>
</defs>
</svg>
